<?xml version="1.0" encoding="UTF-8"?><svg id="Calque_1" xmlns="http://www.w3.org/2000/svg" viewBox="0 0 165 165"><path d="M122.45,55.37c-1.9,0-3.45,1.55-3.45,3.45v80.04c0,2.45-2,4.45-4.45,4.45h-63.19c-2.45,0-4.45-2-4.45-4.45V58.82c0-1.9-1.55-3.45-3.45-3.45s-3.45,1.55-3.45,3.45v80.04c0,6.26,5.09,11.35,11.35,11.35h63.19c6.26,0,11.35-5.09,11.35-11.35V58.82c0-1.9-1.55-3.45-3.45-3.45Z" fill="#000" stroke-width="0"/><path d="M130.34,43.53h-28.15v-12.35c0-1.9-1.55-3.45-3.45-3.45h-31.6c-1.9,0-3.45,1.55-3.45,3.45v12.35h-28.15c-1.9,0-3.45,1.55-3.45,3.45s1.55,3.45,3.45,3.45h94.79c1.9,0,3.45-1.55,3.45-3.45s-1.55-3.45-3.45-3.45ZM95.3,43.53h-24.7v-8.9h24.7v8.9Z" fill="#000" stroke-width="0"/><path d="M86.4,127.02v-60.29c0-1.9-1.55-3.45-3.45-3.45s-3.45,1.55-3.45,3.45v60.29c0,1.9,1.55,3.45,3.45,3.45s3.45-1.55,3.45-3.45Z" fill="#000" stroke-width="0"/><path d="M106.15,119.12v-44.5c0-1.9-1.55-3.45-3.45-3.45s-3.45,1.55-3.45,3.45v44.5c0,1.9,1.55,3.45,3.45,3.45s3.45-1.55,3.45-3.45Z" fill="#000" stroke-width="0"/><path d="M66.65,119.12v-44.5c0-1.9-1.55-3.45-3.45-3.45s-3.45,1.55-3.45,3.45v44.5c0,1.9,1.55,3.45,3.45,3.45s3.45-1.55,3.45-3.45Z" fill="#000" stroke-width="0"/></svg>