<?xml version="1.0" encoding="UTF-8"?><svg id="Calque_1" xmlns="http://www.w3.org/2000/svg" viewBox="0 0 166 166"><path d="M144.44,82.07l-29.59-33.02c-1.27-1.42-3.45-1.54-4.87-.27-1.42,1.27-1.54,3.45-.27,4.87l24.35,27.17h-18.68c-27.65,0-3.57,0-31.22-.04-.29,0-.57.01-.83.03-.26-.02-.54-.03-.83-.03-27.65.05-2.57.05-30.22.04h-18.68l24.35-27.17c1.27-1.42,1.15-3.6-.27-4.87-1.42-1.27-3.6-1.15-4.87.27l-29.59,33.02c-1.18,1.31-1.18,3.29,0,4.6l29.59,33.02h-.07c1.27,1.42,3.45,1.54,4.87.27,1.42-1.27,1.54-3.45.27-4.87l-24.63-27.56h20.42c27.19,0,1.65,0,28.84.03.29,0,.57-.01.83-.03.26.02.54.03.83.03,27.19-.04,2.65-.04,29.84-.03h20.42l-24.63,27.56c-1.27,1.42-1.15,3.6.27,4.87s3.6,1.15,4.87-.27h-.07l29.59-33.02c1.18-1.31,1.18-3.29,0-4.6Z"/></svg>