<?xml version="1.0" encoding="UTF-8"?>
<svg id="Calque_1" data-name="Calque 1" xmlns="http://www.w3.org/2000/svg" viewBox="0 0 165 165">
  <defs>
    <style>
      .cls-1 {
        fill: #000;
        stroke-width: 0px;
      }
    </style>
  </defs>
  <path class="cls-1" d="M131.22,58.88c0-3.63-1.42-7.04-3.99-9.6l-14.6-14.6c-2.58-2.57-5.99-3.99-9.62-3.99-3.64,0-7.05,1.42-9.62,3.99l-10.73,10.73c-.13.12-.19.17-.25.21l-.04.04s-.05.08-.1.14L16.58,111.49c-.52.52-.86,1.2-.95,1.93l-3.61,32.85c-.01.13-.02.25-.02.38,0,.87.35,1.69.97,2.3.63.62,1.41.94,2.31.94l.45-.04,32.83-3.61c.71-.09,1.39-.42,1.9-.94l65.58-65.58c.13-.12.19-.17.25-.21l.05-.05s.05-.08.1-.14l10.78-10.79c2.58-2.58,3.99-6,3.99-9.63ZM46.7,139.87l-27.73,3.07,3.07-27.73,62.66-62.66,24.62,24.7-62.62,62.62ZM122.64,63.93l-8.64,8.64-24.66-24.66,8.66-8.66c1.34-1.33,3.11-2.06,4.99-2.06,1.9,0,3.68.74,5.01,2.08l14.65,14.65c1.34,1.34,2.07,3.12,2.07,5.02,0,1.89-.74,3.67-2.08,5Z"/>
  <rect class="cls-1" x="42.05" y="92.21" width="48.82" height="6.52" transform="translate(-48.04 74.95) rotate(-45)"/>
  <path class="cls-1" d="M146.74,143.36h-75.12c-1.8,0-3.26,1.46-3.26,3.26s1.46,3.26,3.26,3.26h75.12c1.8,0,3.26-1.46,3.26-3.26s-1.46-3.26-3.26-3.26Z"/>
</svg>