<?xml version="1.0" encoding="UTF-8"?><svg id="Calque_1" xmlns="http://www.w3.org/2000/svg" viewBox="0 0 453 281"><path d="M150.4,137.65c.03,1.37,0,2.76,0,4.13-.23,47.53-23.04,89.4-58.95,119.45-1.9,1.59-13.46,10.8-14.9,10.76-.88-.02-3.23-4.04-2.9-4.56,41.95-28.07,70.96-74.18,71.37-125.65.01-1.37.03-2.76,0-4.13-1.21-47.34-26.37-89.33-63.31-117.57-1.5-1.15-10.2-6.73-10.54-7.27-.4-.62,1.89-4.52,2.91-4.54,1.46-.03,13.34,9.16,15.3,10.75,36.33,29.41,60.07,71.16,61.01,118.63Z" fill="#f0f1f2"/><path d="M150.4,137.65h226.32v-9.09l63.28,11.37-62.29,11.35c-.34.09-.99-.42-.99-.6v-8.89h-226.32c0-1.37.03-2.76,0-4.13Z" fill="#e57137"/><path d="M145.02,137.65c.03,1.37.01,2.76,0,4.13H6.29s0-4.13,0-4.13h16.13l3.52-20.26,56.28,20.23,62.8.04Z" fill="#e57137"/><path d="M278.72,65.12l21.77,38.08v-38.08c1.9.26,11.66-.82,11.66,1.17v56.34h-12.05c-2.22,0-18.82-34.39-22.94-38.08v38.08h-11.66v-57.51h13.22Z" fill="#f0f1f2"/><path d="M328.76,117.7c-15.71-15.11-10.47-51.11,15.1-53.91,26.24-2.88,37.28,21.85,29.32,44.07-6.24,17.42-31.37,22.39-44.42,9.85ZM345.38,74.63c-17.26,2.8-15.75,35.57-1.56,38.49,25.52,5.26,25.02-42.29,1.56-38.49Z" fill="#f0f1f2"/><path d="M256.17,76h-29.55v11.66h27.21v10.1h-27.21v13.99h31.1v10.88h-43.54v-57.51h40.82c1.96,0,.93,9.2,1.17,10.88Z" fill="#f0f1f2"/><path d="M177.64,111.75h27.6c1.96,0,.93,9.2,1.17,10.88h-45.1c.33-3.71-.8-7.9.72-11.33l28.05-35.3h-27.99v-10.88h43.15c1.74,0,1.48,9,.58,10.68l-28.18,35.95Z" fill="#f0f1f2"/><path d="M202.02,191.97v-33c0-1.13,3.39-1.31,4.45-1.11v41.53c-2.04-.1-4.49.65-5.96-1.08l-21.49-32.29v33.37h-5.19v-40.79c0-.32,5.3-1.56,5.96.35l22.23,33.02Z" fill="#f0f1f2"/><path d="M214.26,157.86h15.58c.55,0,5.29.98,6.17,1.24,12.62,3.7,13.97,22.74,8.42,32.62-1.93,3.44-6.81,7.66-10.88,7.66h-19.29c-.08,0-1.11-1.03-1.11-1.11v-39.3c0-.2.87-.74,1.11-1.11ZM218.34,195.68h10.76c.5,0,5.17-1.15,5.98-1.44,9.94-3.65,10.19-24.88,1.76-30.02-.48-.29-4.51-1.91-4.77-1.91h-13.73v33.37Z" fill="#f0f1f2"/><path d="M368.21,170.47c-5.83.38-3.55.2-4.81-2.96-5.15-12.9-25.13-2.96-17.11,5.21,5.44,5.54,23.52,2.07,23.32,15.83-.25,17.12-32.23,16.3-30.34-1.78,6.16-.92,3.79,1.22,5.79,4.97,3.92,7.36,20.2,6.29,19.48-3.84-.68-9.47-22.26-5.3-24.35-16.5-3.45-18.5,29.45-19.52,28.02-.94Z" fill="#f0f1f2"/><path d="M294.5,158.87c2.86,1.52,10.35,12.48,4.33,12.41-4.48-.05-1.87-7.56-9.25-9.36-15.16-3.71-19.24,9.94-17.75,22.19,1.17,9.6,11.4,16.12,19.91,10.43,5.06-3.39,2.44-10.77,9.68-9.23.17,2.04-.55,3.88-1.35,5.69-3.98,9.01-13.84,11.88-22.8,8.43-13.49-5.19-14.24-31.76-2.94-39.34,5.04-3.38,14.81-4.05,20.15-1.21Z" fill="#f0f1f2"/><path d="M335.57,162.31h-23v14.09h20.77v3.71h-20.77v15.57h23.74v3.71h-28.19v-41.53h26.34c1.13,0,1.31,3.39,1.11,4.45Z" fill="#f0f1f2"/><rect x="161.21" y="158.6" width="3.71" height="40.79" fill="#f0f1f2"/><rect x="255.44" y="158.6" width="3.71" height="40.79" fill="#f0f1f2"/></svg>